<?xml version="1.0" standalone="no"?>
<!DOCTYPE svg PUBLIC "-//W3C//DTD SVG 20010904//EN"
 "http://www.w3.org/TR/2001/REC-SVG-20010904/DTD/svg10.dtd">
<svg version="1.0" xmlns="http://www.w3.org/2000/svg"
 width="35pt" height="35pt" viewBox="0 0 512.000000 512.000000"
 preserveAspectRatio="xMidYMid meet">

<g transform="translate(0.000000,512.000000) scale(0.100000,-0.100000)"
fill="#00bcd4" stroke="none">
<path d="M1467 5030 c-187 -47 -306 -251 -253 -434 32 -110 41 -120 366 -390
96 -80 177 -146 180 -146 7 0 393 320 444 368 52 50 82 99 102 168 46 160 -38
339 -194 412 -49 23 -70 27 -152 27 -79 0 -104 -4 -147 -24 l-53 -23 -52 22
c-59 26 -178 35 -241 20z m171 -165 c20 -9 56 -35 80 -58 l42 -41 43 41 c50
50 101 73 159 73 144 -1 239 -148 178 -275 -15 -31 -64 -78 -190 -184 -94 -78
-176 -144 -183 -147 -7 -2 -91 61 -187 140 -187 155 -220 195 -220 268 0 46
22 103 53 137 52 56 151 76 225 46z"/>
<path d="M3067 5030 c-187 -47 -306 -251 -253 -434 32 -110 41 -120 366 -390
96 -80 177 -146 180 -146 7 0 393 320 444 368 52 50 82 99 102 168 46 160 -38
339 -194 412 -49 23 -70 27 -152 27 -79 0 -104 -4 -147 -24 l-53 -23 -52 22
c-59 26 -178 35 -241 20z m171 -165 c20 -9 56 -35 80 -58 l42 -41 43 41 c50
50 101 73 159 73 144 -1 239 -148 178 -275 -15 -31 -64 -78 -190 -184 -94 -78
-176 -144 -183 -147 -7 -2 -91 61 -187 140 -187 155 -220 195 -220 268 0 46
22 103 53 137 52 56 151 76 225 46z"/>
<path d="M347 4230 c-187 -47 -306 -251 -253 -434 32 -110 41 -120 366 -390
96 -80 177 -146 180 -146 7 0 393 320 444 368 52 50 82 99 102 168 46 160 -38
339 -194 412 -49 23 -70 27 -152 27 -79 0 -104 -4 -147 -24 l-53 -23 -52 22
c-59 26 -178 35 -241 20z m171 -165 c20 -9 56 -35 80 -58 l42 -41 43 41 c50
50 101 73 159 73 144 -1 239 -148 178 -275 -15 -31 -64 -78 -190 -184 -94 -78
-176 -144 -183 -147 -7 -2 -91 61 -187 140 -187 155 -220 195 -220 268 0 46
22 103 53 137 52 56 151 76 225 46z"/>
<path d="M4187 4230 c-187 -47 -306 -251 -253 -434 32 -110 41 -120 366 -390
96 -80 177 -146 180 -146 7 0 393 320 444 368 52 50 82 99 102 168 46 160 -38
339 -194 412 -49 23 -70 27 -152 27 -79 0 -104 -4 -147 -24 l-53 -23 -52 22
c-59 26 -178 35 -241 20z m171 -165 c20 -9 56 -35 80 -58 l42 -41 43 41 c50
50 101 73 159 73 144 -1 239 -148 178 -275 -15 -31 -64 -78 -190 -184 -94 -78
-176 -144 -183 -147 -7 -2 -91 61 -187 140 -187 155 -220 195 -220 268 0 46
22 103 53 137 52 56 151 76 225 46z"/>
<path d="M2248 3990 c-336 -60 -595 -290 -695 -617 -23 -78 -26 -104 -26 -233
0 -128 3 -159 30 -262 l30 -117 -31 -63 c-27 -54 -31 -73 -31 -143 1 -72 4
-87 34 -143 58 -106 142 -159 273 -170 l79 -7 23 -55 c12 -31 38 -80 59 -111
35 -53 136 -157 185 -191 l23 -16 -33 -65 -33 -65 -550 514 c-302 282 -554
523 -559 536 -45 111 -63 143 -109 183 -119 108 -278 98 -410 -25 l-62 -57
-90 -5 c-99 -5 -138 -19 -193 -72 -55 -51 -76 -101 -77 -181 0 -82 20 -130 78
-186 44 -43 88 -59 244 -90 l112 -22 540 -579 541 -579 0 -545 0 -544 960 0
960 0 0 544 0 545 541 579 540 579 92 17 c207 39 274 74 322 171 27 53 27 165
1 215 -51 99 -124 142 -251 148 l-90 5 -62 57 c-99 93 -196 119 -313 84 -77
-23 -156 -105 -190 -197 l-25 -68 -550 -514 -550 -513 -33 65 -33 65 23 16
c49 34 150 138 185 191 21 31 47 80 59 111 l23 55 79 7 c131 11 215 64 273
170 30 56 33 71 34 143 0 70 -4 89 -31 143 l-31 63 30 117 c26 101 30 136 31
257 0 117 -3 153 -22 218 -89 310 -303 526 -614 618 -67 20 -98 22 -368 25
-162 1 -316 -1 -342 -6z m630 -166 c44 -9 117 -35 172 -61 79 -38 108 -59 181
-132 73 -73 94 -102 132 -181 60 -123 82 -231 74 -355 -7 -97 -37 -230 -53
-229 -5 0 -32 4 -61 8 -59 10 -59 5 -6 113 27 54 37 88 41 142 l5 71 -82 0
-81 0 0 -40 c0 -79 -44 -148 -115 -181 -93 -43 -169 -13 -265 106 -99 122
-156 172 -245 215 -130 63 -259 76 -397 41 -151 -39 -258 -114 -308 -216 -20
-42 -24 -65 -25 -147 l0 -96 -50 -8 c-27 -4 -54 -8 -59 -8 -16 -1 -46 132 -53
229 -8 124 14 232 74 355 38 79 59 108 132 181 73 73 102 94 181 132 138 67
192 75 483 76 188 1 267 -3 325 -15z m-373 -668 c76 -38 88 -49 227 -216 41
-49 71 -74 123 -100 64 -33 74 -35 162 -35 l94 0 -5 -55 c-3 -30 -11 -127 -17
-215 -5 -88 -17 -186 -25 -219 -45 -183 -201 -337 -385 -381 -274 -64 -556
108 -623 381 -18 73 -61 660 -52 709 19 102 169 178 339 171 78 -3 97 -8 162
-40z m-1716 -294 c34 -19 71 -72 71 -103 0 -13 -130 -124 -308 -262 -9 -7 -51
-3 -135 13 -105 20 -126 27 -151 52 -25 25 -28 34 -23 70 10 71 30 83 160 86
l112 3 70 68 c39 38 79 73 90 79 30 17 76 14 114 -6z m3659 4 c15 -8 56 -44
92 -80 l64 -66 98 0 c113 0 142 -8 163 -49 23 -45 19 -79 -12 -110 -23 -23
-48 -31 -147 -51 -98 -19 -122 -21 -139 -10 -64 40 -307 245 -307 259 0 31 37
84 71 103 41 22 80 23 117 4z m-2584 -248 c4 -57 9 -129 13 -160 l6 -58 -37 0
c-106 0 -181 91 -162 195 12 64 82 124 147 125 26 0 26 0 33 -102z m1505 75
c50 -38 66 -71 66 -133 0 -91 -53 -149 -146 -158 l-52 -5 6 59 c4 32 9 106 13
163 l7 103 40 -5 c22 -3 52 -14 66 -24z m-1849 -605 l560 -523 0 -319 0 -319
99 96 c135 131 234 177 381 177 148 0 248 -47 383 -178 l97 -96 0 320 0 319
551 515 c303 283 556 519 563 524 9 6 54 -24 147 -98 74 -60 135 -111 136
-114 1 -4 -241 -266 -537 -582 l-539 -575 0 -497 -1 -498 -800 0 -800 0 -1
498 0 497 -539 575 c-296 316 -538 578 -537 582 3 9 260 217 270 217 4 1 260
-234 567 -521z m905 -313 c91 -19 177 -19 271 1 42 8 77 14 79 12 1 -2 21 -40
44 -85 l40 -81 -144 -116 c-79 -64 -149 -116 -155 -116 -6 0 -75 52 -155 116
l-144 115 42 85 c23 46 44 84 47 84 3 0 37 -7 75 -15z m-96 -412 l33 -29 -61
-26 -61 -27 0 75 0 75 28 -20 c15 -11 42 -32 61 -48z m549 -41 l-3 -38 -59 26
-58 27 58 46 59 47 3 -35 c2 -19 2 -52 0 -73z"/>
<path d="M2242 2438 c4 -117 6 -126 38 -186 37 -70 68 -100 144 -140 43 -22
64 -26 136 -26 78 -1 90 2 148 33 70 38 101 70 139 145 23 45 27 66 31 174 l4
122 -322 0 -322 0 4 -122z m474 -70 c-7 -39 -31 -74 -70 -102 -20 -16 -42 -21
-86 -21 -44 0 -66 5 -86 21 -39 28 -63 63 -70 102 l-6 32 162 0 163 0 -7 -32z"/>
</g>
</svg>
