<?xml version="1.0" standalone="no"?>
<!DOCTYPE svg PUBLIC "-//W3C//DTD SVG 20010904//EN"
 "http://www.w3.org/TR/2001/REC-SVG-20010904/DTD/svg10.dtd">
<svg version="1.0" xmlns="http://www.w3.org/2000/svg"
 width="512.000000pt" height="512.000000pt" viewBox="0 0 512.000000 512.000000"
 preserveAspectRatio="xMidYMid meet">

<g transform="translate(0.000000,512.000000) scale(0.100000,-0.100000)"
fill="#00bcd4" stroke="none">
<path d="M2397 5104 c-175 -32 -328 -114 -463 -248 -139 -139 -217 -288 -250
-478 -79 -451 205 -887 658 -1010 116 -31 326 -31 442 1 446 121 730 562 652
1009 -33 190 -111 338 -250 478 -54 54 -120 108 -163 133 -193 114 -410 154
-626 115z m368 -165 c251 -78 428 -256 506 -509 34 -108 34 -292 0 -400 -78
-253 -258 -433 -511 -511 -62 -20 -97 -24 -200 -24 -103 0 -138 4 -200 24
-253 78 -433 258 -511 511 -34 108 -34 292 0 400 87 281 306 479 589 530 79
15 248 4 327 -21z"/>
<path d="M2714 4263 c-135 -131 -250 -238 -254 -238 -5 0 -45 33 -90 73 -83
74 -109 84 -151 61 -29 -15 -42 -57 -28 -88 6 -14 62 -72 125 -128 151 -136
141 -137 293 9 503 486 485 465 440 522 -15 19 -30 26 -55 26 -32 0 -56 -20
-280 -237z"/>
<path d="M312 4300 c-119 -18 -237 -112 -284 -228 l-23 -57 -3 -1464 c-1 -895
1 -1492 7 -1534 18 -127 86 -222 203 -284 l53 -28 673 -3 672 -3 0 -148 0
-148 -95 -126 -95 -127 -54 0 c-70 0 -86 -7 -101 -44 -15 -34 -5 -71 23 -92
14 -11 260 -13 1280 -14 790 0 1270 4 1281 10 10 5 24 22 30 39 10 24 10 34
-3 59 -19 37 -32 42 -107 42 l-59 0 -95 127 -95 126 0 148 0 148 668 3 667 3
55 28 c113 58 183 158 201 284 6 42 8 639 7 1534 l-3 1464 -24 60 c-33 83
-124 173 -206 205 -57 23 -72 24 -296 24 -219 1 -238 0 -258 -18 -14 -13 -21
-31 -21 -56 0 -66 7 -68 265 -72 211 -3 233 -5 270 -25 46 -24 75 -54 101
-103 18 -34 19 -89 22 -1387 l2 -1353 -2029 0 c-1116 0 -2037 -3 -2046 -6 -24
-9 -46 -60 -39 -89 13 -53 -113 -50 2073 -55 l2036 -5 -3 -70 c-3 -85 -29
-137 -90 -180 l-44 -30 -2268 0 -2268 0 -44 30 c-61 43 -87 95 -90 180 l-3 70
240 3 c229 2 240 3 262 24 33 30 31 80 -3 107 -25 20 -39 21 -266 21 l-238 0
2 1353 3 1352 22 40 c24 46 54 75 103 101 33 18 74 19 622 24 572 5 588 6 602
25 32 41 14 95 -38 115 -32 12 -1070 12 -1154 0z m3058 -3773 l0 -174 74 -99
75 -99 -474 -3 c-260 -1 -690 -1 -954 0 l-480 3 75 99 74 99 0 174 0 173 805
0 805 0 0 -173z"/>
<path d="M3651 4299 c-52 -21 -67 -78 -31 -117 20 -21 27 -22 249 -22 208 0
229 2 244 18 24 27 22 85 -4 108 -19 17 -40 19 -228 21 -120 2 -216 -2 -230
-8z"/>
<path d="M1120 3018 c-52 -14 -95 -52 -119 -102 -21 -42 -22 -55 -19 -319 l3
-275 30 -43 c17 -23 48 -52 70 -63 39 -21 53 -21 691 -24 647 -2 651 -2 677
19 34 26 37 79 7 109 -20 20 -33 20 -659 20 -568 0 -641 2 -655 16 -24 23 -24
485 0 508 14 14 127 16 1093 16 l1078 0 21 23 c27 29 28 67 3 98 l-19 24
-1084 2 c-698 1 -1095 -2 -1118 -9z"/>
<path d="M3574 3019 c-22 -11 -44 -48 -44 -73 0 -7 9 -25 21 -40 l20 -26 194
0 c163 0 196 -3 209 -16 24 -23 24 -485 0 -508 -13 -13 -44 -16 -179 -16 -179
0 -197 -5 -211 -62 -5 -22 0 -34 25 -58 l31 -31 177 3 c205 3 235 13 288 87
l30 43 0 288 0 288 -30 43 c-54 76 -81 84 -310 86 -127 2 -208 -2 -221 -8z"/>
<path d="M2688 2450 c-14 -10 -30 -32 -37 -47 -6 -15 -20 -170 -30 -343 -21
-352 -20 -362 41 -400 49 -31 102 -22 176 30 34 23 65 39 70 36 6 -3 42 -52
80 -109 74 -108 97 -127 161 -127 31 0 58 14 148 77 61 43 119 90 128 106 30
50 15 94 -68 214 l-75 109 70 48 c83 58 107 98 89 156 -6 20 -22 47 -35 59
-31 30 -592 211 -652 211 -26 0 -50 -7 -66 -20z m355 -218 c114 -36 207 -68
207 -72 0 -3 -30 -25 -66 -50 -68 -46 -89 -77 -78 -113 4 -12 42 -72 85 -134
44 -63 79 -118 79 -123 0 -5 -28 -28 -61 -51 -48 -33 -63 -39 -70 -28 -36 63
-164 236 -182 246 -33 19 -38 17 -121 -37 -70 -46 -76 -48 -76 -27 0 49 22
424 26 445 4 19 9 22 27 17 12 -4 115 -37 230 -73z"/>
</g>
</svg>
