<?xml version="1.0" standalone="no"?>
<!DOCTYPE svg PUBLIC "-//W3C//DTD SVG 20010904//EN"
 "http://www.w3.org/TR/2001/REC-SVG-20010904/DTD/svg10.dtd">
<svg version="1.0" xmlns="http://www.w3.org/2000/svg"
 width="512.000000pt" height="512.000000pt" viewBox="0 0 512.000000 512.000000"
 preserveAspectRatio="xMidYMid meet">

<g transform="translate(0.000000,512.000000) scale(0.100000,-0.100000)"
fill="#ffffff" stroke="none">
<path d="M1439 5105 c-434 -59 -749 -272 -854 -576 -29 -83 -30 -87 -33 -349
-5 -355 16 -528 94 -780 65 -209 152 -388 286 -588 69 -103 118 -197 118 -228
0 -8 11 -26 25 -39 22 -23 31 -25 125 -25 l100 0 0 -139 c0 -133 1 -141 24
-168 l24 -28 311 -3 311 -3 0 -124 0 -125 -54 0 c-83 0 -121 -42 -103 -112 9
-35 53 -58 112 -58 l45 0 0 -85 0 -85 -58 0 c-73 0 -102 -22 -102 -79 0 -57
31 -81 103 -81 l57 0 0 -85 0 -85 -53 0 c-60 0 -90 -17 -105 -58 -12 -35 6
-85 37 -101 11 -6 42 -11 70 -11 l51 0 0 -85 0 -85 -58 0 c-71 0 -102 -25
-102 -81 0 -54 32 -79 103 -79 l57 0 0 -85 0 -85 -44 0 c-63 0 -95 -15 -110
-51 -17 -40 -10 -75 22 -99 20 -17 40 -20 116 -20 l91 0 95 -191 c52 -105 106
-200 119 -210 22 -18 44 -19 301 -19 257 0 279 1 301 19 13 10 67 105 119 210
l95 191 91 0 c76 0 96 3 116 20 32 24 39 59 22 99 -15 36 -47 51 -110 51 l-44
0 0 85 0 85 60 0 c72 0 100 22 100 80 0 55 -32 80 -103 80 l-57 0 0 85 0 85
53 0 c60 0 90 17 105 58 12 35 -6 85 -37 101 -11 6 -42 11 -70 11 l-51 0 0 85
0 85 58 0 c72 0 102 25 102 83 0 57 -27 77 -100 77 l-60 0 0 85 0 85 45 0 c59
0 103 23 112 58 18 70 -20 112 -103 112 l-54 0 0 125 0 124 311 3 311 3 24 28
c23 27 24 35 24 168 l0 139 100 0 c94 0 103 2 125 25 14 13 25 31 25 39 0 31
45 117 130 246 208 318 319 622 360 985 7 59 10 208 8 365 -3 262 -4 266 -33
349 -90 262 -330 453 -680 542 -198 49 -381 60 -578 34 -232 -31 -453 -113
-641 -239 -38 -25 -72 -46 -77 -46 -5 0 -41 22 -81 49 -295 199 -676 285
-1039 236z m486 -184 c112 -25 215 -60 308 -105 85 -41 197 -112 197 -125 0
-5 -26 -35 -57 -66 -194 -194 -392 -322 -528 -340 -91 -12 -125 -38 -125 -94
0 -30 38 -70 73 -76 49 -10 173 21 264 64 157 76 284 175 483 376 203 207 379
305 655 366 397 89 900 -38 1085 -272 92 -117 119 -205 127 -414 19 -510 -92
-926 -349 -1316 -46 -69 -94 -149 -107 -177 l-24 -52 -1367 0 -1367 0 -24 52
c-13 29 -61 108 -107 177 -246 373 -352 747 -352 1248 0 219 25 329 102 444
106 158 335 277 623 324 125 20 370 13 490 -14z m1725 -2486 l0 -85 -1090 0
-1090 0 0 85 0 85 1090 0 1090 0 0 -85z m-670 -380 l0 -125 -420 0 -420 0 0
125 0 125 420 0 420 0 0 -125z m0 -380 l0 -85 -420 0 -420 0 0 85 0 85 420 0
420 0 0 -85z m0 -330 l0 -85 -420 0 -420 0 0 85 0 85 420 0 420 0 0 -85z m0
-340 l0 -85 -420 0 -420 0 0 85 0 85 420 0 420 0 0 -85z m-2 -327 l-3 -83
-415 0 -415 0 -3 83 -3 82 421 0 421 0 -3 -82z m-98 -263 c0 -3 -27 -59 -60
-125 l-60 -120 -200 0 -200 0 -60 120 c-33 66 -60 122 -60 125 0 3 144 5 320
5 176 0 320 -2 320 -5z"/>
</g>
</svg>
