<?xml version="1.0" standalone="no"?>
<!DOCTYPE svg PUBLIC "-//W3C//DTD SVG 20010904//EN"
 "http://www.w3.org/TR/2001/REC-SVG-20010904/DTD/svg10.dtd">
<svg version="1.0" xmlns="http://www.w3.org/2000/svg"
 width="512.000000pt" height="512.000000pt" viewBox="0 0 512.000000 512.000000"
 preserveAspectRatio="xMidYMid meet">

<g transform="translate(0.000000,512.000000) scale(0.100000,-0.100000)"
fill="#00bcd4" stroke="none">
<path d="M1390 5076 c-74 -21 -142 -61 -197 -116 -29 -29 -53 -57 -53 -61 0
-5 -10 -9 -22 -9 -56 -1 -170 -33 -243 -69 -158 -79 -280 -236 -335 -432 -18
-66 -20 -102 -20 -359 l0 -286 -43 -11 c-26 -7 -64 -30 -93 -56 -161 -145
-129 -385 63 -479 38 -18 71 -36 74 -41 4 -5 9 -38 13 -73 35 -340 291 -689
628 -855 l68 -33 0 -63 0 -63 -255 0 c-275 0 -346 -8 -463 -54 -197 -77 -373
-252 -451 -447 -59 -148 -61 -175 -61 -769 0 -597 -1 -587 62 -609 23 -8 479
-11 1655 -11 l1622 1 61 -31 c245 -124 553 -153 833 -79 566 149 949 709 878
1285 -65 521 -440 929 -956 1040 -99 21 -328 23 -435 5 -167 -30 -347 -105
-488 -205 -69 -49 -192 -164 -239 -224 l-18 -23 -85 40 c-151 70 -172 74 -492
78 l-288 5 0 72 0 73 43 19 c76 34 214 133 291 209 187 185 294 407 331 685 5
42 8 46 53 65 67 27 135 99 157 164 22 66 17 169 -10 226 -28 57 -94 119 -148
140 l-47 18 0 232 0 233 100 4 c88 3 102 6 125 28 21 20 25 32 25 82 0 74 -25
196 -55 271 -99 243 -322 428 -580 482 -98 20 -933 21 -1005 1z m1045 -179
c137 -48 265 -149 340 -267 32 -50 85 -192 85 -227 l0 -23 -697 0 c-445 0
-711 4 -735 10 -156 44 -243 232 -173 375 39 80 81 120 157 146 49 18 87 19
498 16 l445 -2 80 -28z m-1366 -249 c1 -151 70 -277 196 -359 l66 -42 -33 -34
c-137 -142 -407 -262 -590 -263 l-28 0 0 174 c0 199 12 257 77 363 82 133 158
190 310 232 1 1 2 -32 2 -71z m1549 -995 c-4 -540 -5 -561 -26 -637 -50 -178
-133 -324 -254 -447 -126 -127 -305 -226 -479 -265 -106 -24 -310 -24 -414 0
-339 78 -601 314 -713 642 -41 120 -47 184 -47 519 l0 320 85 7 c115 10 245
48 365 108 125 62 210 126 305 228 l75 80 553 1 553 1 -3 -557z m-2098 -199
c0 -121 -1 -122 -43 -86 -25 22 -39 81 -27 122 9 33 46 80 62 80 4 0 8 -52 8
-116z m2300 74 c11 -18 20 -49 20 -68 0 -36 -32 -100 -50 -100 -6 0 -10 39
-10 100 0 108 8 121 40 68z m1365 -1307 c44 -11 130 -45 190 -75 211 -105 368
-262 470 -471 85 -173 100 -244 99 -460 0 -166 -3 -187 -28 -270 -117 -384
-425 -665 -806 -734 -333 -60 -676 46 -908 281 -99 100 -145 165 -202 283
-165 340 -138 713 76 1031 149 222 390 377 669 433 85 17 348 6 440 -18z
m-2235 -134 l0 -62 -82 -80 c-46 -44 -112 -107 -146 -140 l-64 -60 -129 135
-129 135 0 64 0 63 38 -6 c91 -15 318 -17 392 -3 127 24 120 27 120 -46z
m-526 -334 l146 -158 0 -622 0 -623 -706 0 -705 0 4 512 c4 571 3 564 75 703
51 100 173 220 273 268 77 38 173 67 221 67 l28 0 0 -110 c0 -81 -3 -110 -12
-110 -30 0 -122 -53 -168 -96 -58 -54 -92 -108 -114 -183 -13 -44 -16 -105
-16 -321 0 -334 -6 -320 136 -320 107 0 128 7 142 48 20 58 -25 112 -94 112
l-25 0 3 218 c3 245 8 264 87 335 89 81 237 72 323 -19 60 -65 68 -99 68 -326
l0 -208 -45 0 c-51 0 -99 -20 -109 -45 -12 -32 -6 -69 16 -92 20 -21 29 -23
138 -23 173 0 162 -25 158 341 -3 292 -3 294 -29 349 -47 101 -141 187 -234
216 l-55 18 0 113 0 113 174 0 174 0 146 -157z m786 -58 l0 -215 -52 -24
c-131 -58 -214 -211 -188 -348 44 -227 280 -341 481 -231 123 66 191 219 159
354 -24 102 -106 198 -196 231 l-34 12 0 219 0 220 138 -6 c147 -6 239 -27
319 -74 l41 -24 -33 -72 c-84 -183 -120 -366 -111 -562 13 -288 110 -531 301
-749 l66 -76 -686 0 -685 0 0 619 0 619 166 161 166 161 74 0 74 0 0 -215z
m154 -389 c41 -17 73 -57 86 -107 31 -115 -87 -234 -199 -201 -80 24 -123 82
-123 164 0 118 121 192 236 144z"/>
<path d="M978 3684 c-34 -18 -42 -47 -35 -129 9 -112 80 -200 187 -232 150
-44 306 64 326 225 8 67 -4 109 -38 135 -59 44 -128 -15 -128 -109 0 -100
-129 -133 -175 -44 -8 16 -15 48 -15 72 -1 46 -12 68 -47 86 -28 15 -42 15
-75 -4z"/>
<path d="M1885 3689 c-36 -20 -45 -42 -45 -103 0 -92 15 -131 73 -191 41 -42
64 -57 110 -70 161 -47 309 56 332 231 12 91 -34 155 -100 138 -38 -10 -57
-39 -64 -103 -10 -80 -37 -111 -97 -111 -59 0 -94 41 -94 110 0 37 -6 55 -22
74 -27 30 -65 40 -93 25z"/>
<path d="M3557 1869 c-111 -26 -210 -108 -264 -217 -37 -74 -38 -79 -38 -186
1 -236 114 -592 286 -897 67 -119 98 -149 157 -149 69 0 86 19 175 196 l82
164 69 -127 c120 -221 133 -236 207 -235 57 1 82 21 131 104 193 330 331 761
315 988 -11 145 -94 263 -236 333 -61 30 -72 32 -171 32 -126 0 -242 -26 -265
-58 -23 -33 -19 -80 9 -106 27 -25 37 -25 192 -1 108 17 176 -1 239 -65 63
-62 81 -129 65 -239 -30 -210 -96 -421 -200 -633 -39 -79 -74 -143 -78 -143
-4 0 -46 71 -93 158 -92 167 -123 202 -183 202 -65 0 -90 -28 -176 -200 -44
-88 -83 -160 -86 -160 -3 0 -39 69 -80 153 -118 245 -196 512 -198 683 -1 73
2 85 29 130 36 58 106 108 166 118 44 7 44 7 89 -46 99 -117 175 -184 245
-218 62 -29 82 -34 172 -38 100 -4 102 -4 128 22 23 23 26 33 21 64 -8 55 -36
72 -115 72 -129 0 -194 40 -317 195 -37 47 -81 91 -99 99 -36 17 -117 19 -178
5z"/>
</g>
</svg>
