<?xml version="1.0" standalone="no"?>
<!DOCTYPE svg PUBLIC "-//W3C//DTD SVG 20010904//EN"
 "http://www.w3.org/TR/2001/REC-SVG-20010904/DTD/svg10.dtd">
<svg version="1.0" xmlns="http://www.w3.org/2000/svg"
 width="512.000000pt" height="512.000000pt" viewBox="0 0 512.000000 512.000000"
 preserveAspectRatio="xMidYMid meet">

<g transform="translate(0.000000,512.000000) scale(0.100000,-0.100000)"
fill="#ffffff" stroke="none">
<path d="M1195 4931 c-39 -17 -56 -50 -85 -161 -35 -133 -66 -194 -138 -272
-49 -53 -184 -148 -209 -148 -24 0 -63 -61 -63 -99 0 -50 21 -76 88 -110 31
-16 76 -43 99 -60 l43 -31 -46 -62 c-152 -206 -232 -502 -205 -757 21 -196 75
-348 188 -528 83 -133 161 -289 203 -408 17 -49 59 -198 91 -330 97 -387 147
-558 170 -577 28 -24 60 -23 93 3 35 27 34 45 -13 213 -22 78 -70 260 -106
406 -94 373 -152 516 -310 770 -123 198 -168 345 -168 555 0 150 21 256 77
386 33 76 114 209 127 209 13 0 59 -119 84 -216 30 -116 52 -144 115 -144 65
0 86 27 120 158 16 63 42 137 57 165 46 85 141 177 238 232 103 57 119 78 113
140 l-6 45 63 0 c152 0 310 -45 490 -140 141 -75 206 -94 320 -94 114 0 208
27 325 95 104 59 219 102 331 123 60 12 89 22 102 37 24 30 21 71 -8 99 -22
20 -31 22 -82 17 -117 -13 -216 -46 -378 -127 -255 -128 -328 -129 -559 -10
-157 82 -253 115 -383 135 -119 18 -217 19 -336 3 l-90 -12 -59 64 c-70 76
-108 152 -142 284 -27 108 -50 142 -101 151 -16 2 -39 1 -50 -4z m181 -531
c36 -37 89 -85 119 -106 30 -20 55 -40 55 -43 0 -3 -21 -19 -47 -35 -86 -55
-179 -160 -228 -258 l-45 -89 -25 57 c-51 114 -160 239 -264 300 -38 22 -39
30 -3 48 85 45 211 185 262 291 l31 65 41 -81 c26 -52 63 -105 104 -149z"/>
<path d="M3650 4433 c-32 -12 -50 -37 -50 -70 0 -46 25 -67 106 -87 38 -10
106 -35 150 -55 279 -131 475 -373 551 -679 21 -82 25 -354 6 -373 -17 -17
-70 19 -141 96 -71 77 -101 95 -165 95 -64 0 -79 -9 -167 -100 -136 -140 -292
-195 -585 -206 -178 -7 -210 -16 -240 -67 -19 -30 -20 -56 -23 -392 -5 -557
14 -714 113 -922 87 -185 193 -310 388 -462 59 -46 107 -86 107 -87 0 -7 -157
-504 -189 -598 -45 -134 -111 -189 -226 -189 -88 0 -158 40 -195 113 -29 57
-206 841 -279 1240 -37 197 -52 243 -93 271 -41 30 -115 36 -161 14 -58 -27
-74 -66 -112 -263 -43 -232 -92 -467 -160 -769 -95 -423 -112 -483 -143 -522
-101 -126 -301 -110 -372 29 -16 32 -73 205 -194 590 -46 148 -60 170 -107
170 -31 0 -59 -18 -70 -47 -7 -20 2 -61 47 -207 108 -350 176 -551 200 -592
34 -60 116 -129 182 -155 79 -30 195 -30 274 0 71 27 154 101 191 168 36 67
171 646 277 1193 29 146 53 266 55 268 2 2 8 -20 14 -50 5 -29 24 -125 41
-213 95 -491 241 -1121 276 -1192 67 -138 237 -221 395 -193 116 21 214 92
264 190 20 39 182 533 201 613 3 15 9 27 13 27 3 0 36 -22 73 -48 37 -27 87
-55 112 -62 64 -18 180 -9 232 18 53 27 453 338 527 410 179 174 306 428 337
674 5 46 10 276 10 513 0 553 16 518 -250 528 -130 4 -293 26 -308 42 -2 2 1
52 8 112 62 542 -282 1056 -809 1209 -88 25 -88 25 -111 17z m522 -1283 c144
-152 359 -232 661 -247 l138 -6 -3 -446 c-4 -444 -4 -446 -30 -542 -48 -177
-153 -356 -275 -470 -59 -55 -447 -357 -482 -376 -44 -23 -123 -17 -167 13
-104 71 -437 340 -495 400 -117 122 -200 272 -244 441 -26 100 -35 258 -35
624 l0 356 138 6 c153 6 257 25 380 67 114 39 185 83 267 167 39 39 75 72 80
72 6 1 36 -26 67 -59z"/>
<path d="M4070 2981 c-14 -5 -65 -29 -115 -54 -136 -70 -258 -105 -489 -142
-24 -4 -50 -18 -68 -36 l-29 -29 3 -357 c5 -399 7 -416 78 -570 45 -97 87
-159 155 -232 65 -70 439 -361 477 -372 46 -13 74 4 278 162 249 192 318 266
397 424 36 71 73 185 73 226 0 39 -32 69 -73 69 -46 0 -60 -19 -97 -130 -38
-115 -99 -216 -177 -292 -56 -54 -361 -297 -374 -298 -4 0 -88 63 -188 140
-199 154 -267 226 -325 344 -68 137 -76 192 -76 517 l0 289 23 4 c226 43 360
85 484 150 l81 44 44 -25 c115 -67 285 -125 457 -157 46 -9 85 -16 87 -16 2 0
4 -66 4 -146 0 -83 5 -154 11 -165 15 -29 57 -42 90 -29 45 19 51 50 47 243
l-3 177 -30 29 c-26 26 -44 32 -154 50 -149 25 -308 77 -417 136 -86 46 -134
59 -174 46z"/>
<path d="M4465 2530 c-11 -4 -105 -116 -210 -249 -104 -133 -193 -240 -197
-239 -4 2 -47 55 -95 118 -49 63 -100 121 -114 129 -37 21 -76 7 -95 -33 -21
-43 -18 -48 138 -251 126 -163 139 -174 192 -161 14 3 91 92 202 233 256 325
284 363 284 383 0 24 -38 67 -65 73 -11 3 -29 2 -40 -3z"/>
<path d="M1867 3799 c-15 -11 -31 -38 -37 -62 -31 -120 -57 -156 -144 -206
-98 -55 -95 -131 7 -189 70 -40 105 -85 128 -169 23 -83 50 -113 99 -113 49 0
76 30 99 113 23 84 58 129 128 169 100 56 103 132 8 188 -22 13 -55 37 -73 54
-32 30 -72 117 -72 157 0 11 -13 34 -29 50 -35 35 -77 38 -114 8z m102 -310
l44 -49 -44 -47 c-24 -27 -46 -48 -49 -48 -3 0 -25 21 -49 48 l-44 47 44 49
c24 27 46 49 49 49 3 0 25 -22 49 -49z"/>
<path d="M245 2465 c-14 -13 -25 -30 -25 -38 0 -7 -7 -37 -16 -66 -18 -60 -68
-121 -131 -158 -51 -30 -73 -58 -73 -93 0 -37 23 -64 85 -99 66 -37 108 -97
126 -178 15 -66 49 -103 94 -103 50 0 74 27 96 104 23 85 56 134 111 166 23
14 54 37 70 52 50 48 33 111 -43 152 -71 39 -112 93 -138 181 -24 82 -45 105
-99 105 -22 0 -41 -8 -57 -25z m108 -301 l46 -50 -47 -52 -47 -51 -47 54 -48
53 23 15 c13 8 34 31 47 50 14 20 25 35 25 34 1 -1 22 -25 48 -53z"/>
</g>
</svg>
