<?xml version="1.0" standalone="no"?>
<!DOCTYPE svg PUBLIC "-//W3C//DTD SVG 20010904//EN"
 "http://www.w3.org/TR/2001/REC-SVG-20010904/DTD/svg10.dtd">
<svg version="1.0" xmlns="http://www.w3.org/2000/svg"
 width="35pt" height="35pt" viewBox="0 0 512.000000 512.000000"
 preserveAspectRatio="xMidYMid meet">

<g transform="translate(0.000000,512.000000) scale(0.100000,-0.100000)"
fill="#00bcd4" stroke="none">
<path d="M3676 5109 c-483 -67 -895 -404 -1046 -857 -159 -479 -36 -982 324
-1330 210 -203 451 -316 750 -353 222 -27 496 21 698 122 358 179 610 509 695
909 24 117 24 363 0 480 -57 271 -178 492 -371 678 -182 175 -391 286 -641
337 -96 20 -314 28 -409 14z m327 -174 c248 -37 464 -150 638 -332 408 -427
409 -1093 4 -1522 -439 -464 -1171 -464 -1610 0 -356 377 -402 936 -114 1379
55 84 215 244 299 299 241 157 510 217 783 176z"/>
<path d="M3525 4665 l-25 -24 0 -231 0 -230 -230 0 -231 0 -24 -25 -25 -24 0
-291 0 -291 25 -24 24 -25 231 0 230 0 0 -230 0 -231 25 -24 24 -25 291 0 291
0 24 25 25 24 0 231 0 230 230 0 231 0 24 25 25 24 0 291 0 291 -25 24 -24 25
-231 0 -230 0 0 230 0 231 -25 24 -24 25 -291 0 -291 0 -24 -25z m485 -371 l0
-226 29 -29 29 -29 226 0 226 0 0 -170 0 -170 -226 0 -226 0 -29 -29 -29 -29
0 -226 0 -226 -170 0 -170 0 0 226 0 226 -29 29 -29 29 -226 0 -226 0 0 170 0
170 226 0 226 0 29 29 29 29 0 226 0 226 170 0 170 0 0 -226z"/>
<path d="M1145 4090 c-158 -17 -304 -76 -427 -176 -117 -95 -208 -232 -258
-389 -65 -203 -17 -662 99 -962 17 -43 31 -81 31 -85 0 -4 -21 -1 -47 7 -186
57 -402 -37 -492 -212 -52 -103 -51 -79 -51 -1186 l0 -1029 29 -29 29 -29
1907 0 1906 0 24 24 c13 13 26 39 30 57 3 19 5 493 3 1054 -3 966 -4 1023 -22
1069 -48 125 -121 206 -234 259 -54 25 -83 32 -153 35 -146 7 -227 -30 -371
-167 -101 -95 -141 -148 -157 -206 -6 -22 -43 -328 -82 -680 -48 -435 -75
-650 -86 -672 -31 -66 -114 -104 -180 -83 -53 18 -99 64 -112 112 -6 24 -49
275 -97 558 -47 283 -91 539 -99 568 -37 144 -157 255 -309 283 -119 22 -263
-28 -347 -118 -77 -84 -82 -103 -184 -713 -52 -309 -99 -576 -105 -595 -14
-43 -59 -81 -110 -95 -80 -22 -166 32 -189 117 -6 21 -42 331 -81 688 l-71
650 -94 195 c-107 224 -153 342 -189 490 -50 207 -70 461 -45 596 5 32 30 100
54 151 114 235 360 370 625 342 38 -4 116 -24 172 -44 318 -114 539 -130 815
-60 53 14 98 27 101 29 6 7 -49 156 -58 156 -4 0 -42 -9 -86 -20 -233 -60
-446 -45 -700 51 -140 53 -265 71 -389 59z m-629 -1777 c38 -13 72 -39 153
-118 l103 -101 73 -657 c44 -395 80 -677 90 -707 22 -66 100 -152 169 -184
132 -63 288 -31 384 78 65 74 68 88 171 703 93 554 100 587 128 626 42 61 103
92 178 91 34 0 73 -7 91 -17 45 -23 101 -90 113 -134 6 -21 51 -282 101 -581
49 -298 96 -560 104 -583 29 -84 97 -153 191 -194 64 -28 177 -25 246 7 97 44
163 119 188 213 5 22 42 328 81 679 43 385 76 649 85 665 20 39 167 176 217
203 60 31 175 32 233 1 52 -28 89 -67 114 -123 20 -44 21 -61 21 -1027 l0
-983 -1790 0 -1790 0 0 968 c0 602 4 980 10 1002 20 72 64 125 131 159 72 36
129 40 205 14z"/>
<path d="M972 3663 c-138 -137 -190 -259 -199 -465 l-6 -128 87 0 86 0 0 93
c0 164 41 267 148 375 35 35 62 67 60 71 -9 22 -84 131 -90 131 -4 0 -43 -35
-86 -77z"/>
</g>
</svg>
