<?xml version="1.0" standalone="no"?>
<!DOCTYPE svg PUBLIC "-//W3C//DTD SVG 20010904//EN"
 "http://www.w3.org/TR/2001/REC-SVG-20010904/DTD/svg10.dtd">
<svg version="1.0" xmlns="http://www.w3.org/2000/svg"
 width="512.000000pt" height="512.000000pt" viewBox="0 0 512.000000 512.000000"
 preserveAspectRatio="xMidYMid meet">

<g transform="translate(0.000000,512.000000) scale(0.100000,-0.100000)"
fill="#00bcd4" stroke="none">
<path d="M2951 5080 c-41 -11 -107 -38 -148 -60 -100 -53 -161 -70 -262 -70
-231 -1 -401 -93 -526 -285 -65 -100 -109 -143 -195 -190 -89 -49 -159 -111
-209 -185 -65 -98 -82 -157 -91 -310 l-8 -135 -61 -117 c-122 -235 -122 -371
0 -606 l61 -117 8 -135 c5 -100 13 -150 29 -192 45 -118 138 -227 241 -285
120 -68 150 -94 214 -192 137 -208 272 -285 526 -300 147 -9 153 -11 285 -77
113 -56 212 -78 320 -70 100 7 145 21 278 87 l107 52 138 8 c109 5 154 12 211
32 135 47 226 123 315 260 61 95 99 131 191 182 133 75 235 195 276 324 13 41
23 113 28 191 8 133 14 153 85 274 88 152 88 370 0 522 -71 121 -77 141 -85
274 -12 195 -51 293 -162 408 -29 30 -90 76 -137 104 -110 64 -129 83 -207
201 -126 190 -260 263 -515 276 l-138 8 -114 57 c-174 87 -303 105 -455 66z
m234 -181 c22 -5 85 -32 140 -59 125 -62 195 -80 310 -80 194 0 307 -63 400
-223 49 -85 138 -170 233 -221 86 -47 154 -116 189 -192 20 -45 26 -78 33
-187 9 -149 17 -178 93 -316 l52 -96 0 -100 0 -100 -52 -96 c-76 -138 -84
-167 -93 -316 -7 -109 -13 -142 -33 -187 -35 -76 -103 -145 -189 -192 -95 -51
-184 -136 -233 -221 -93 -160 -206 -223 -400 -223 -116 0 -186 -18 -310 -80
-182 -91 -277 -91 -454 -1 -121 61 -196 81 -317 81 -186 0 -284 54 -389 215
-71 109 -128 164 -239 229 -163 96 -205 165 -217 356 -9 145 -30 221 -86 318
-59 101 -68 129 -68 217 0 88 9 116 68 217 56 97 77 173 86 318 12 191 54 260
215 354 108 64 183 136 238 229 22 37 65 89 94 116 78 71 139 91 304 101 154
9 198 21 307 80 121 65 223 84 318 59z"/>
<path d="M3625 4416 c-25 -11 -129 -171 -608 -938 -628 -1006 -608 -968 -552
-1023 32 -33 94 -34 128 -2 14 12 280 432 593 932 617 989 599 956 544 1009
-32 31 -67 38 -105 22z"/>
<path d="M2476 4364 c-114 -36 -204 -119 -262 -239 -118 -246 -25 -549 204
-662 71 -36 82 -38 166 -38 82 0 98 4 157 32 159 78 259 249 259 443 0 259
-171 464 -396 476 -54 3 -94 -1 -128 -12z m168 -185 c90 -25 166 -149 166
-273 0 -129 -52 -226 -146 -272 -45 -22 -63 -26 -102 -20 -196 26 -278 328
-135 496 60 70 131 93 217 69z"/>
<path d="M3499 3412 c-131 -44 -235 -153 -285 -302 -27 -80 -25 -253 5 -334
30 -83 74 -148 139 -206 79 -70 144 -94 257 -94 81 0 97 3 156 31 189 92 295
329 248 555 -30 144 -146 293 -264 338 -82 31 -184 36 -256 12z m186 -191 c52
-24 98 -74 127 -136 34 -75 33 -199 -3 -275 -31 -65 -69 -106 -124 -131 -104
-48 -219 9 -277 136 -32 71 -32 199 0 270 42 92 124 155 202 155 19 0 53 -9
75 -19z"/>
<path d="M79 1912 l-32 -29 -24 -854 c-18 -662 -21 -860 -12 -882 22 -52 33
-54 463 -67 388 -11 400 -11 425 8 36 26 51 59 51 112 l0 45 136 70 c198 102
147 108 894 -103 333 -93 637 -175 677 -181 206 -31 464 1 658 82 28 11 334
204 680 428 347 223 729 470 850 548 236 152 275 185 275 229 0 62 -111 187
-211 238 -108 54 -229 69 -339 40 -30 -8 -232 -98 -448 -200 -215 -102 -394
-186 -396 -186 -2 0 -15 19 -29 43 -41 69 -156 171 -239 211 -115 55 -187 64
-623 75 -289 8 -408 15 -460 27 -38 9 -140 49 -225 89 -252 120 -391 151 -638
142 -182 -6 -314 -38 -510 -124 -9 -4 -12 18 -12 90 0 87 -2 99 -24 124 -23
27 -25 27 -177 34 -85 4 -272 10 -415 14 l-262 7 -33 -30z m589 -178 l134 -6
-6 -147 c-4 -80 -13 -409 -22 -731 -9 -322 -17 -586 -17 -586 -4 -3 -560 16
-562 18 -3 5 36 1442 40 1454 4 12 120 11 433 -2z m1080 -139 c114 -22 183
-46 334 -119 227 -110 289 -120 828 -131 168 -4 327 -11 354 -16 123 -23 243
-113 296 -223 48 -101 48 -101 -40 -99 -41 2 -277 8 -523 14 -494 13 -488 14
-513 -47 -23 -56 11 -119 70 -129 17 -2 286 -12 598 -20 504 -14 570 -14 596
-1 42 21 56 64 48 140 l-6 63 407 193 c373 176 414 193 473 197 72 5 162 -21
195 -57 17 -18 15 -20 -51 -63 -38 -25 -403 -260 -810 -524 -806 -521 -792
-513 -989 -548 -101 -17 -242 -19 -335 -4 -36 5 -330 85 -655 176 -324 91
-622 171 -661 176 -98 14 -204 -7 -314 -62 -45 -23 -85 -39 -88 -36 -8 8 18
959 26 967 17 16 164 90 218 109 162 57 379 75 542 44z"/>
</g>
</svg>
