<?xml version="1.0" standalone="no"?>
<!DOCTYPE svg PUBLIC "-//W3C//DTD SVG 20010904//EN"
 "http://www.w3.org/TR/2001/REC-SVG-20010904/DTD/svg10.dtd">
<svg version="1.0" xmlns="http://www.w3.org/2000/svg"
 width="512.000000pt" height="512.000000pt" viewBox="0 0 512.000000 512.000000"
 preserveAspectRatio="xMidYMid meet">

<g transform="translate(0.000000,512.000000) scale(0.100000,-0.100000)"
fill="#ffffff" stroke="none">
<path d="M2322 4674 c-22 -15 -90 -141 -151 -282 -28 -64 -31 -77 -21 -106 15
-45 41 -67 89 -73 66 -9 83 10 172 190 68 137 80 167 75 197 -11 73 -105 116
-164 74z"/>
<path d="M1654 4669 c-25 -13 -54 -59 -54 -87 0 -11 18 -73 40 -138 30 -88 49
-126 71 -146 64 -60 168 -15 169 74 0 54 -75 258 -106 286 -27 24 -82 29 -120
11z"/>
<path d="M1121 4256 c-53 -30 -68 -114 -28 -158 35 -37 312 -168 356 -168 84
1 131 99 79 165 -26 34 -315 175 -356 175 -15 -1 -38 -7 -51 -14z"/>
<path d="M2748 3824 c-189 -45 -344 -202 -388 -393 -18 -78 -7 -379 20 -564
12 -82 20 -151 17 -153 -2 -3 -33 0 -68 6 -35 5 -92 10 -127 10 -95 0 -196 26
-302 78 -79 38 -109 61 -181 132 -51 51 -102 114 -128 158 -114 195 -326 304
-531 273 -192 -30 -316 -125 -420 -324 l-35 -67 -278 -111 c-154 -62 -287
-121 -298 -132 -57 -61 -22 -160 62 -173 27 -5 70 8 202 61 92 37 169 66 171
64 2 -2 -59 -191 -134 -419 -99 -300 -163 -475 -230 -630 -92 -211 -94 -217
-94 -295 -1 -66 4 -90 25 -136 34 -72 96 -134 168 -168 48 -22 69 -26 147 -26
81 0 97 3 149 30 54 28 81 56 302 320 133 160 255 298 270 307 70 44 176 -6
198 -93 4 -17 -32 -129 -124 -382 -72 -196 -133 -380 -137 -406 -10 -78 24
-176 85 -243 67 -73 141 -110 234 -116 160 -10 204 21 395 275 94 126 243 302
406 483 220 244 349 397 442 525 l20 29 17 -122 c24 -180 69 -251 197 -311 46
-22 69 -26 140 -26 76 0 93 4 152 33 75 37 121 83 153 157 15 33 44 171 85
405 34 195 66 365 71 377 25 66 162 85 216 31 24 -24 31 -56 93 -406 73 -413
83 -445 152 -508 70 -63 140 -89 238 -89 71 0 94 4 140 26 73 34 120 76 154
139 24 45 31 81 62 318 25 196 53 358 108 610 40 188 76 345 79 348 2 3 83
-34 178 -81 146 -74 178 -86 207 -81 72 11 110 85 79 151 -14 29 -43 47 -227
140 -174 87 -210 109 -205 123 14 36 18 397 5 453 -45 193 -199 348 -392 394
-132 31 -242 13 -396 -64 -156 -78 -224 -96 -372 -96 -148 0 -216 18 -372 96
-153 77 -269 95 -400 63z m172 -204 c28 -5 102 -34 164 -65 174 -85 239 -100
436 -100 197 0 260 15 439 101 142 69 199 81 284 59 111 -28 192 -105 223
-213 14 -47 16 -83 10 -206 -8 -204 -35 -372 -121 -776 -87 -406 -87 -409
-116 -655 -12 -104 -28 -202 -35 -217 -9 -16 -30 -33 -58 -43 -39 -15 -50 -16
-87 -4 -23 8 -50 25 -60 39 -12 17 -38 143 -83 397 -71 404 -81 436 -153 505
-21 20 -65 49 -98 65 -51 23 -73 28 -145 28 -99 0 -168 -27 -239 -91 -76 -68
-85 -98 -157 -507 -45 -254 -71 -380 -83 -397 -10 -14 -37 -31 -60 -39 -37
-12 -48 -11 -87 4 -28 10 -50 27 -58 43 -7 15 -23 113 -35 217 -29 248 -30
252 -116 655 -86 403 -113 571 -121 776 -6 123 -4 159 10 206 30 104 112 185
216 212 68 18 66 18 130 6z m-1685 -477 c60 -20 143 -100 200 -193 55 -90 174
-211 270 -275 150 -100 304 -150 500 -161 118 -7 191 -28 236 -66 23 -20 31
-45 63 -196 41 -198 46 -170 -52 -321 -113 -177 -175 -252 -516 -631 -152
-168 -290 -333 -378 -451 -96 -131 -147 -190 -168 -199 -71 -29 -170 31 -170
104 0 21 53 180 127 383 120 328 127 352 128 423 0 65 -4 84 -33 142 -18 36
-51 82 -73 103 -121 109 -313 125 -435 37 -22 -16 -150 -160 -283 -320 -140
-166 -255 -295 -270 -301 -54 -23 -139 27 -161 95 -10 30 -4 49 79 243 60 141
134 344 224 618 141 428 202 583 293 748 77 138 137 196 234 226 44 13 135 10
185 -8z"/>
</g>
</svg>
