<?xml version="1.0" standalone="no"?>
<!DOCTYPE svg PUBLIC "-//W3C//DTD SVG 20010904//EN"
 "http://www.w3.org/TR/2001/REC-SVG-20010904/DTD/svg10.dtd">
<svg version="1.0" xmlns="http://www.w3.org/2000/svg"
 width="512.000000pt" height="512.000000pt" viewBox="0 0 512.000000 512.000000"
 preserveAspectRatio="xMidYMid meet">

<g transform="translate(0.000000,512.000000) scale(0.100000,-0.100000)"
fill="#ffffff" stroke="none">
<path d="M1425 5110 c-155 -25 -326 -93 -460 -183 -86 -59 -222 -193 -289
-286 -165 -230 -284 -573 -305 -881 -31 -461 124 -900 497 -1403 77 -105 95
-136 99 -172 7 -56 -20 -373 -59 -695 -81 -674 -5 -997 306 -1305 181 -179
363 -229 532 -145 112 55 181 144 225 290 22 71 23 92 24 420 1 357 5 402 47
538 64 210 206 345 403 387 88 19 142 18 230 0 186 -39 322 -161 391 -349 53
-146 58 -196 59 -571 1 -333 2 -354 24 -425 44 -147 112 -235 224 -290 170
-84 352 -34 533 145 204 201 309 434 334 745 11 125 5 301 -11 331 -4 9 -21
22 -38 28 -24 10 -34 10 -60 -3 -17 -9 -32 -22 -33 -29 0 -6 -2 -86 -3 -177
-3 -245 -29 -380 -102 -525 -54 -107 -109 -183 -192 -265 -162 -160 -310 -183
-426 -66 -39 39 -56 67 -75 121 -24 69 -25 76 -25 420 -1 324 -3 358 -24 455
-59 274 -180 445 -386 545 -116 56 -177 70 -305 70 -128 0 -188 -14 -305 -70
-205 -98 -326 -270 -387 -545 -21 -99 -23 -124 -20 -417 2 -342 -6 -420 -52
-511 -49 -97 -145 -152 -244 -138 -141 19 -315 183 -425 401 -105 208 -126
459 -74 880 37 297 70 678 64 755 -5 81 -17 104 -132 260 -232 314 -373 601
-437 887 -19 83 -22 129 -23 308 0 185 3 223 23 315 42 185 131 425 185 495
14 19 16 18 31 -20 52 -124 91 -326 130 -682 14 -122 32 -252 41 -290 50 -219
150 -347 316 -403 53 -18 79 -21 152 -17 107 6 177 36 282 124 103 86 130 103
165 103 78 0 127 -129 160 -420 26 -225 75 -356 165 -438 68 -62 134 -87 215
-79 146 13 224 107 274 329 41 181 41 184 12 213 -28 28 -71 33 -100 12 -12
-9 -27 -55 -47 -143 -37 -162 -55 -208 -91 -239 -49 -41 -123 -30 -174 27 -56
61 -82 150 -109 368 -45 373 -132 520 -306 520 -72 0 -134 -31 -234 -115 -111
-94 -168 -119 -255 -113 -109 8 -180 59 -236 169 -35 70 -51 142 -69 303 -57
524 -93 700 -181 897 l-28 62 81 78 c131 124 271 201 443 245 110 28 323 26
444 -4 109 -27 222 -80 342 -159 264 -174 542 -174 806 -1 218 143 398 196
623 184 252 -13 462 -111 640 -297 194 -203 332 -524 371 -860 l6 -56 -74 -7
c-156 -15 -271 -63 -369 -154 -112 -103 -153 -183 -229 -452 -49 -172 -88
-257 -143 -317 -52 -57 -84 -73 -144 -73 -98 1 -183 65 -296 224 -89 125 -140
177 -209 213 -48 26 -62 28 -158 28 -90 0 -113 -4 -159 -24 -38 -18 -57 -33
-66 -55 -16 -38 -3 -78 31 -97 22 -12 33 -11 87 9 71 25 143 28 190 8 41 -18
98 -78 175 -187 76 -106 164 -190 245 -231 50 -25 77 -32 143 -36 73 -4 88 -1
139 22 69 31 107 63 160 131 58 74 97 165 154 362 61 207 89 268 154 339 76
84 217 144 340 144 26 0 27 -2 27 -47 0 -67 -23 -203 -54 -314 -69 -252 -198
-500 -411 -789 -117 -158 -127 -179 -133 -265 -6 -102 45 -634 63 -662 29 -43
92 -42 121 3 15 21 15 38 0 181 -28 285 -38 435 -33 479 4 35 22 67 99 171
483 652 609 1211 411 1836 -150 477 -461 794 -880 899 -74 19 -115 22 -253 22
-145 -1 -177 -4 -262 -27 -129 -34 -236 -82 -349 -155 -125 -81 -190 -109
-282 -124 -147 -23 -263 11 -447 130 -180 118 -352 171 -570 177 -74 2 -162 0
-195 -5z"/>
<path d="M1240 2760 c-45 -45 -11 -120 54 -120 37 0 76 36 76 70 0 10 -9 29
-21 44 -26 33 -79 36 -109 6z"/>
<path d="M1685 2685 c-48 -47 -16 -125 52 -125 32 0 73 42 73 75 0 33 -42 75
-75 75 -14 0 -37 -11 -50 -25z"/>
<path d="M2940 2610 c-45 -45 -11 -120 54 -120 37 0 76 36 76 70 0 10 -9 29
-21 44 -26 33 -79 36 -109 6z"/>
<path d="M3611 2234 c-35 -45 -22 -93 30 -113 30 -11 83 8 93 34 30 80 -71
145 -123 79z"/>
<path d="M1983 2178 c-46 -22 -45 -114 2 -132 81 -31 146 70 79 123 -29 23
-48 25 -81 9z"/>
<path d="M2946 2169 c-34 -27 -36 -77 -3 -107 62 -58 152 11 113 87 -24 46
-67 54 -110 20z"/>
<path d="M1465 2000 c-44 -48 -10 -120 56 -120 44 0 69 27 69 72 0 60 -85 93
-125 48z"/>
<path d="M3537 1652 c-23 -25 -22 -85 1 -105 26 -24 85 -22 107 3 43 48 10
120 -55 120 -23 0 -43 -7 -53 -18z"/>
<path d="M1327 1408 c-38 -30 -38 -95 1 -124 43 -33 112 4 112 60 0 58 -68 97
-113 64z"/>
<path d="M3765 1015 c-14 -13 -25 -36 -25 -50 0 -33 42 -75 75 -75 33 0 75 42
75 75 0 33 -42 75 -75 75 -14 0 -37 -11 -50 -25z"/>
<path d="M1545 865 c-14 -13 -25 -36 -25 -50 0 -33 42 -75 75 -75 33 0 75 42
75 75 0 33 -42 75 -75 75 -14 0 -37 -11 -50 -25z"/>
</g>
</svg>
