<?xml version="1.0" standalone="no"?>
<!DOCTYPE svg PUBLIC "-//W3C//DTD SVG 20010904//EN"
 "http://www.w3.org/TR/2001/REC-SVG-20010904/DTD/svg10.dtd">
<svg version="1.0" xmlns="http://www.w3.org/2000/svg"
 width="512.000000pt" height="512.000000pt" viewBox="0 0 512.000000 512.000000"
 preserveAspectRatio="xMidYMid meet">

<g transform="translate(0.000000,512.000000) scale(0.100000,-0.100000)"
fill="#ffffff" stroke="none">
<path d="M1233 5105 c-12 -8 -58 -82 -102 -164 -45 -82 -87 -154 -95 -160 -7
-6 -75 -45 -152 -86 -150 -82 -184 -110 -184 -155 0 -44 33 -72 185 -155 77
-43 145 -81 152 -87 6 -5 46 -73 88 -151 43 -78 86 -152 98 -164 25 -28 86
-31 115 -5 11 9 58 86 103 169 l83 153 159 86 c137 75 161 91 173 120 12 29
12 39 1 67 -12 27 -38 46 -174 120 l-159 87 -88 159 c-89 160 -107 181 -159
181 -13 0 -32 -7 -44 -15z m111 -366 l51 -92 93 -50 c50 -28 92 -54 92 -58 0
-4 -42 -30 -93 -57 l-93 -51 -53 -95 c-29 -53 -56 -96 -60 -96 -3 0 -24 35
-46 77 -56 107 -65 116 -165 170 -50 26 -90 50 -90 53 0 3 37 25 83 49 105 56
110 60 159 150 47 87 59 104 66 96 3 -3 28 -46 56 -96z"/>
<path d="M3074 4049 c-68 -9 -105 -21 -260 -90 -215 -94 -248 -94 -458 0 -171
76 -222 91 -321 91 -180 0 -327 -74 -462 -233 -57 -68 -129 -197 -164 -297
-12 -36 -24 -67 -25 -69 -2 -2 -14 3 -26 11 -28 18 -239 88 -368 122 -133 34
-230 49 -336 49 -80 1 -98 -3 -147 -27 -31 -15 -65 -39 -76 -54 -114 -161 44
-407 514 -803 96 -81 260 -206 363 -278 34 -24 62 -48 62 -52 0 -5 14 -104 30
-220 36 -250 78 -472 127 -664 19 -77 36 -149 37 -160 1 -17 -26 -31 -169 -88
-384 -153 -739 -243 -829 -208 -24 10 -27 15 -22 39 12 47 97 163 196 266 112
116 258 244 440 386 71 56 135 110 140 120 18 34 11 70 -19 101 -48 48 -73 41
-202 -58 -517 -394 -776 -708 -729 -882 50 -185 322 -194 825 -26 88 29 220
79 294 109 74 31 135 55 136 54 2 -2 15 -34 30 -73 100 -255 207 -395 331
-431 73 -21 121 -7 169 48 72 85 112 207 190 591 l49 237 101 52 100 51 102
-53 c57 -30 103 -58 103 -62 0 -26 104 -556 121 -618 40 -142 99 -230 169
-250 40 -11 110 2 157 31 88 55 186 203 264 399 18 47 34 87 35 88 2 2 72 -23
156 -56 652 -255 1015 -267 1052 -37 28 167 -222 467 -699 839 -128 100 -167
111 -212 60 -28 -30 -30 -84 -5 -112 9 -10 72 -63 140 -116 305 -240 518 -455
583 -588 19 -41 21 -49 8 -64 -12 -14 -27 -16 -109 -11 -154 9 -396 78 -708
199 -124 48 -152 63 -148 76 48 152 132 576 170 855 14 99 26 180 28 182 2 1
70 53 152 115 189 141 300 235 450 380 299 290 385 475 279 601 -97 114 -367
100 -775 -41 -65 -22 -120 -40 -122 -40 -2 0 -7 14 -11 31 -12 52 -63 170
-107 243 -48 81 -160 203 -227 246 -109 69 -249 104 -367 89z m-974 -183 c30
-7 112 -38 181 -69 277 -122 339 -120 664 23 108 48 126 53 190 53 248 -2 451
-256 516 -648 17 -103 17 -401 0 -568 l-14 -128 -36 -28 c-87 -68 -531 -356
-702 -455 l-46 -26 -26 53 c-55 111 -131 172 -227 184 -91 11 -172 -50 -235
-177 -15 -30 -29 -57 -31 -59 -11 -12 -758 461 -792 501 -37 45 -51 584 -19
740 69 341 235 565 449 607 61 12 67 12 128 -3z m-1315 -421 c114 -18 213 -44
388 -101 87 -29 145 -43 159 -38 19 6 20 4 14 -27 -26 -132 -29 -279 -9 -533
5 -74 5 -78 -13 -68 -36 20 -310 244 -433 355 -184 166 -321 332 -321 390 0
38 73 45 215 22z m3754 -34 c19 -12 7 -53 -36 -120 -53 -83 -326 -348 -508
-494 -88 -70 -161 -123 -163 -118 -2 5 1 78 6 162 8 145 1 375 -13 419 -5 16
-2 20 17 20 14 0 64 14 113 30 211 71 377 108 490 109 44 0 86 -3 94 -8z
m-2824 -1221 c72 -48 218 -140 325 -204 107 -65 205 -124 217 -132 l21 -13
-21 -83 -22 -83 -235 -117 c-129 -65 -242 -118 -252 -118 -13 0 -24 31 -52
148 -37 158 -86 398 -111 552 -8 52 -17 108 -20 123 -3 20 -1 26 8 21 6 -4 71
-47 142 -94z m1876 -2 c-33 -226 -145 -738 -161 -738 -12 0 -330 148 -410 190
l-64 35 -22 87 -21 87 166 100 c91 55 245 151 341 215 96 63 176 113 179 111
2 -2 -2 -41 -8 -87z m-962 -132 c27 -29 71 -117 64 -128 -2 -5 -27 -20 -54
-34 l-50 -25 -47 27 c-26 15 -49 28 -51 30 -1 1 9 29 23 61 45 97 73 114 115
69z m-444 -628 c-3 -13 -19 -90 -36 -173 -33 -160 -81 -330 -105 -377 -13 -26
-17 -27 -39 -16 -33 18 -81 82 -120 158 -35 71 -100 239 -94 243 2 2 60 29
129 61 69 31 154 73 190 91 78 41 82 41 75 13z m1015 -68 c96 -45 177 -84 179
-86 7 -7 -51 -160 -96 -252 -47 -95 -125 -184 -144 -165 -21 21 -53 139 -95
351 -24 124 -44 230 -44 235 0 11 -15 17 200 -83z"/>
<path d="M2963 3688 c-27 -7 -40 -21 -72 -81 -84 -152 -80 -148 -194 -210
-112 -61 -127 -76 -127 -127 0 -42 26 -66 142 -128 l97 -52 52 -97 c64 -119
87 -143 132 -143 45 0 67 23 128 136 55 102 56 103 200 184 146 81 135 139
-42 232 l-100 53 -54 100 c-71 133 -93 151 -162 133z m133 -387 l46 -28 -43
-24 c-39 -21 -58 -43 -95 -105 -10 -16 -14 -13 -38 29 -18 30 -45 57 -74 74
-40 24 -43 28 -27 37 61 36 83 57 104 95 l24 43 28 -46 c17 -26 49 -58 75 -75z"/>
<path d="M1260 837 c-16 -8 -47 -53 -83 -120 l-59 -107 -96 -52 c-118 -64
-142 -86 -142 -131 0 -48 20 -67 135 -130 l100 -55 58 -103 c63 -115 86 -139
127 -139 44 0 75 34 132 141 l53 100 102 55 c192 103 192 154 0 259 l-102 56
-52 98 c-29 53 -61 105 -71 114 -26 23 -72 30 -102 14z m149 -386 l43 -24 -46
-29 c-26 -16 -60 -49 -75 -74 l-29 -45 -31 50 c-20 33 -44 57 -71 71 -22 11
-40 22 -40 24 0 2 20 16 45 30 25 15 52 41 61 59 30 59 34 60 67 9 19 -27 50
-57 76 -71z"/>
</g>
</svg>
